HIERARCHY
ROOT Hips
{
  OFFSET 265.287 66.7526 -254.649
  CHANNELS 6 Xposition Yposition Zposition Zrotation Xrotation Yrotation
  JOINT LeftUpLeg
  {
    OFFSET 8.64259 1.95398 -2.38835
    CHANNELS 3 Zrotation Xrotation Yrotation
    JOINT LeftLeg
    {
      OFFSET 43.7702 0 0
      CHANNELS 3 Zrotation Xrotation Yrotation
      JOINT LeftFoot
      {
        OFFSET 40.6238 0 0
        CHANNELS 3 Zrotation Xrotation Yrotation
        JOINT LeftToeBase
        {
          OFFSET 12.7242 0 0
          CHANNELS 3 Zrotation Xrotation Yrotation
          End Site
          {
            OFFSET 0 0 0
          }
        }
      }
    }
  }
  JOINT RightUpLeg
  {
    OFFSET -8.2249 1.95398 -2.59336
    CHANNELS 3 Zrotation Xrotation Yrotation
    JOINT RightLeg
    {
      OFFSET 43.5653 0 0
      CHANNELS 3 Zrotation Xrotation Yrotation
      JOINT RightFoot
      {
        OFFSET 40.6238 0 0
        CHANNELS 3 Zrotation Xrotation Yrotation
        JOINT RightToeBase
        {
          OFFSET 12.7242 0 0
          CHANNELS 3 Zrotation Xrotation Yrotation
          End Site
          {
            OFFSET 0 0 0
          }
        }
      }
    }
  }
  JOINT Spine
  {
    OFFSET 0.165834 0.87714 6.61349
    CHANNELS 3 Zrotation Xrotation Yrotation
    JOINT Spine1
    {
      OFFSET 7.38963 1.71661e-005 0
      CHANNELS 3 Zrotation Xrotation Yrotation
      JOINT Spine2
      {
        OFFSET 11.9445 1.14441e-005 0
        CHANNELS 3 Zrotation Xrotation Yrotation
        JOINT Spine3
        {
          OFFSET 14.7254 4.19617e-005 0
          CHANNELS 3 Zrotation Xrotation Yrotation
          JOINT Spine4
          {
            OFFSET 10.9679 0 0
            CHANNELS 3 Zrotation Xrotation Yrotation
            JOINT RightShoulder
            {
              OFFSET 2.46616 -1.6653 3.69651
              CHANNELS 3 Zrotation Xrotation Yrotation
              JOINT RightArm
              {
                OFFSET 13.0012 0 0
                CHANNELS 3 Zrotation Xrotation Yrotation
                JOINT RightForeArm
                {
                  OFFSET 28.7848 1.52588e-005 0
                  CHANNELS 3 Zrotation Xrotation Yrotation
                  JOINT RightHand
                  {
                    OFFSET 26.5688 1.52588e-005 0
                    CHANNELS 3 Zrotation Xrotation Yrotation
                    End Site
                    {
                      OFFSET 0 0 0
                    }
                  }
                }
              }
            }
            JOINT LeftShoulder
            {
              OFFSET 2.38034 -1.29275 -3.7523
              CHANNELS 3 Zrotation Xrotation Yrotation
              JOINT LeftArm
              {
                OFFSET 16.3182 6.10351e-005 0
                CHANNELS 3 Zrotation Xrotation Yrotation
                JOINT LeftForeArm
                {
                  OFFSET 27.0901 0 0
                  CHANNELS 3 Zrotation Xrotation Yrotation
                  JOINT LeftHand
                  {
                    OFFSET 24.5451 1.52588e-005 0
                    CHANNELS 3 Zrotation Xrotation Yrotation
                    End Site
                    {
                      OFFSET 0 0 0
                    }
                  }
                }
              }
            }
            JOINT Neck
            {
              OFFSET 5.0226 -0.0266342 0
              CHANNELS 3 Zrotation Xrotation Yrotation
              JOINT Head
              {
                OFFSET 6.69364 2.86102e-005 0
                CHANNELS 3 Zrotation Xrotation Yrotation
                End Site
                {
                  OFFSET 0 0 0
                }
              }
            }
          }
        }
      }
    }
  }
}
MOTION
Frames:	7
Frame Time:	0.0416667
-172.127 83.7481 158.836 98.0842 55.6977 88.1943 177.579 19.5975 89.0468 -100.466 3.88046 1.44385 59.0277 3.56559 5.05628 45.8177 -5.27515 -0.472552 173.567 31.2321 95.251 -57.4664 -18.715 2.58484 75.0509 -8.81215 -1.55992 29.1643 -0.881195 7.46802 0.103479 8.64169 -91.7673 9.5684 -0.590676 -3.45865 -2.10693 -0.742249 -3.42936 -24.6054 0.475427 -3.47635 -4.59278 0.47542 -3.47635 98.7457 -41.9287 -88.0769 22.5067 -18.1993 -4.90651 -12.4177 -5.97737 -57.2671 -5.78844 0.00765162 -5.86913 -83.8071 -48.3019 87.6361 -22.12 28.5988 -4.49471 8.93284 -12.6617 -88.0559 -2.81 -0.0702612 -9.67503 29.7634 1.04559 7.09446 -14.9592 -2.05376 1.90514 
-160.617 89.7034 147.26 98.6743 58.7813 82.427 179.401 44.2847 81.6628 -109.187 5.92648 0.927201 61.9728 4.10015 4.44193 46.5338 -5.45336 0.281885 174.407 14.45 89.0384 -46.0053 -14.7889 1.51655 75.9058 -6.08252 6.35726 31.0325 -0.668992 4.03491 0.505746 8.47398 -91.1707 9.94257 0.475957 -2.3544 -1.73034 0.371894 -2.37305 -24.2532 1.16149 -2.10269 -4.24057 1.16151 -2.10269 99.0364 -40.4884 -87.6822 21.2981 -30.2808 -9.24769 -11.5201 1.47146 -68.8571 -4.37443 0.152635 -10.446 -83.0738 -48.2164 88.7605 -17.8636 15.5008 2.62535 9.20043 -11.0411 -91.5127 0.446956 -0.196117 -9.40301 25.5695 -2.95728 8.88799 -13.9141 -6.1296 0.451935 
-149.481 98.9501 135.577 102.768 55.8792 74.0339 -174.007 52.0055 72.6784 -105.72 3.36237 0.884022 62.5264 3.11447 0.509656 48.2406 -5.91063 1.23155 175.477 2.88227 87.6684 -36.2147 -16.4271 -2.11201 44.8509 9.41948 16.7311 26.4438 0.381417 3.21766 0.905568 8.69635 -90.4044 9.47916 1.62364 -0.927297 -2.1912 1.58129 -0.997875 -24.7332 1.82721 -0.396336 -4.72058 1.82721 -0.396338 99.5781 -41.5193 -86.6616 22.3637 -40.1808 -7.36354 -13.116 5.55704 -75.2486 -3.27962 0.110865 -10.9845 -81.8858 -44.3784 90.302 -17.4889 6.98262 11.6801 13.6883 -10.3438 -92.8336 4.1611 -0.247705 -6.99309 19.3781 -5.33149 9.83453 -12.5057 -7.87227 -3.92611 
-138.777 104.513 123.988 103.845 52.8267 73.8134 -178.558 48.1638 75.5127 -99.2598 -0.234988 0.876258 64.2369 3.59304 -1.809 45.9687 -5.24935 0.948007 176.072 5.17276 87.4958 -34.1679 -13.705 -2.03648 48.0262 8.1269 15.4906 14.6259 3.10052 -4.33055 1.03374 8.83022 -90.5052 9.22211 1.83556 -1.13337 -2.4481 1.78391 -1.21308 -24.9925 2.0913 -0.529135 -4.97987 2.0913 -0.529143 99.4698 -41.7726 -86.8349 21.5444 -49.1778 -6.10746 -14.6588 9.46464 -79.0858 2.29017 -0.207672 -11.9993 -80.8002 -41.0134 91.8437 -15.4346 0.0985809 20.4073 14.1254 -8.89754 -93.3555 4.82168 -0.281657 -7.407 17.1362 -4.54338 11.5799 -12.6985 -7.29975 -5.6586 
-128.158 104.823 112.476 100.361 49.3604 77.1188 178.624 40.9389 78.8334 -79.7559 3.45645 1.10536 60.2674 1.77092 -1.12907 45.6461 -5.43382 -4.92062 176.177 8.38776 87.3548 -20.1704 -9.12963 -0.911149 45.8464 9.80946 20.0267 32.2234 -0.0713142 -5.06939 1.26138 8.66763 -90.6368 9.55197 2.22776 -1.43284 -2.11795 2.16254 -1.52952 -24.6665 2.55533 -0.696774 -4.6538 2.55535 -0.696769 98.8711 -42.3358 -87.8293 22.8614 -52.4876 -3.69761 -11.5011 11.0419 -80.1676 0.956592 -0.113211 -11.3123 -79.9842 -39.5891 93.1566 -10.5197 -5.24806 23.8455 10.2893 -6.76651 -90.9703 6.44415 -0.419863 -8.63987 16.5675 -3.19045 13.5146 -13.383 -6.41204 -6.15654 
-117.076 98.0805 100.924 104.098 50.6759 74.4497 174.947 34.5281 79.2671 -56.7091 7.30667 2.52956 58.0962 0.388721 -1.99227 46.2794 -5.809 -7.68861 174.721 5.51856 88.9224 -20.6967 -8.29698 0.863526 45.6803 9.23415 15.7473 42.0103 -2.01302 -6.59723 1.13937 8.75049 -90.8063 9.38529 1.90983 -1.74077 -2.28554 1.83135 -1.82313 -24.8276 2.34465 -1.08621 -4.8149 2.34465 -1.08622 99.0306 -43.339 -87.4838 24.1226 -47.5194 -1.44114 -13.6781 9.1649 -78.7028 2.13523 -0.198843 -12.0396 -79.6752 -40.4399 93.7248 -5.79508 -9.05334 22.7047 5.4753 -5.72993 -93.4516 12.6864 -0.356217 -6.29101 14.5771 -4.00828 13.6875 -12.0717 -7.05973 -6.48849 
-106.114 90.5534 89.6986 106.905 53.342 74.504 174.111 28.7869 81.2879 -23.6142 11.4373 2.68691 46.8439 -2.84157 -5.70381 46.7945 -6.04919 -8.21196 173.706 -2.8498 90.6416 -37.6619 -9.92556 3.12665 77.9224 -12.9095 -8.92261 36.6792 -1.11852 0.200874 0.930163 8.89624 -91.1396 9.08775 1.34597 -2.3404 -2.5847 1.24169 -2.39735 -25.114 1.987 -1.8279 -5.1014 1.98701 -1.8279 98.472 -44.4238 -88.3413 21.127 -41.6485 -4.96693 -11.409 7.04327 -76.4907 -0.628946 -0.0250251 -11.1844 -78.7913 -43.7217 95.3047 -7.26597 -13.1826 18.4942 2.94149 -3.98213 -95.8784 14.7705 -0.544264 -7.36873 15.7748 -4.09696 12.7577 -9.61773 -7.29281 -4.24496 
